<svg width="155" height="24" viewBox="0 0 155 24" fill="none" xmlns="http://www.w3.org/2000/svg">
<path d="M36.984 6.832L33.208 14.112V18H30.968V14.112L27.176 6.832H29.704L32.104 11.936L34.488 6.832H36.984ZM46.6439 9.136V18H44.3879V16.88C44.0999 17.264 43.7212 17.568 43.2519 17.792C42.7932 18.0053 42.2919 18.112 41.7479 18.112C41.0545 18.112 40.4412 17.968 39.9079 17.68C39.3745 17.3813 38.9532 16.9493 38.6439 16.384C38.3452 15.808 38.1959 15.1253 38.1959 14.336V9.136H40.4359V14.016C40.4359 14.72 40.6119 15.264 40.9639 15.648C41.3159 16.0213 41.7959 16.208 42.4039 16.208C43.0225 16.208 43.5079 16.0213 43.8599 15.648C44.2119 15.264 44.3879 14.72 44.3879 14.016V9.136H46.6439ZM52.326 8.992C52.9873 8.992 53.5687 9.12533 54.07 9.392C54.5713 9.648 54.966 9.984 55.254 10.4V9.136H57.51V18.064C57.51 18.8853 57.3447 19.616 57.014 20.256C56.6833 20.9067 56.1873 21.4187 55.526 21.792C54.8647 22.176 54.0647 22.368 53.126 22.368C51.8673 22.368 50.8327 22.0747 50.022 21.488C49.222 20.9013 48.7687 20.1013 48.662 19.088H50.886C51.0033 19.4933 51.254 19.8133 51.638 20.048C52.0327 20.2933 52.5073 20.416 53.062 20.416C53.7127 20.416 54.2407 20.2187 54.646 19.824C55.0513 19.44 55.254 18.8533 55.254 18.064V16.688C54.966 17.104 54.566 17.4507 54.054 17.728C53.5527 18.0053 52.9767 18.144 52.326 18.144C51.5793 18.144 50.8967 17.952 50.278 17.568C49.6593 17.184 49.1687 16.6453 48.806 15.952C48.454 15.248 48.278 14.4427 48.278 13.536C48.278 12.64 48.454 11.8453 48.806 11.152C49.1687 10.4587 49.654 9.92533 50.262 9.552C50.8807 9.17867 51.5687 8.992 52.326 8.992ZM55.254 13.568C55.254 13.024 55.1473 12.56 54.934 12.176C54.7207 11.7813 54.4327 11.4827 54.07 11.28C53.7073 11.0667 53.318 10.96 52.902 10.96C52.486 10.96 52.102 11.0613 51.75 11.264C51.398 11.4667 51.11 11.7653 50.886 12.16C50.6727 12.544 50.566 13.0027 50.566 13.536C50.566 14.0693 50.6727 14.5387 50.886 14.944C51.11 15.3387 51.398 15.6427 51.75 15.856C52.1127 16.0693 52.4967 16.176 52.902 16.176C53.318 16.176 53.7073 16.0747 54.07 15.872C54.4327 15.6587 54.7207 15.36 54.934 14.976C55.1473 14.5813 55.254 14.112 55.254 13.568ZM59.1217 13.536C59.1217 12.64 59.2977 11.8453 59.6497 11.152C60.0124 10.4587 60.4978 9.92533 61.1058 9.552C61.7244 9.17867 62.4124 8.992 63.1698 8.992C63.8311 8.992 64.4071 9.12533 64.8978 9.392C65.3991 9.65867 65.7991 9.99467 66.0978 10.4V9.136H68.3538V18H66.0978V16.704C65.8098 17.12 65.4098 17.4667 64.8978 17.744C64.3964 18.0107 63.8151 18.144 63.1538 18.144C62.4071 18.144 61.7244 17.952 61.1058 17.568C60.4978 17.184 60.0124 16.6453 59.6497 15.952C59.2977 15.248 59.1217 14.4427 59.1217 13.536ZM66.0978 13.568C66.0978 13.024 65.9911 12.56 65.7778 12.176C65.5644 11.7813 65.2764 11.4827 64.9138 11.28C64.5511 11.0667 64.1618 10.96 63.7458 10.96C63.3298 10.96 62.9458 11.0613 62.5938 11.264C62.2418 11.4667 61.9538 11.7653 61.7298 12.16C61.5164 12.544 61.4098 13.0027 61.4098 13.536C61.4098 14.0693 61.5164 14.5387 61.7298 14.944C61.9538 15.3387 62.2418 15.6427 62.5938 15.856C62.9564 16.0693 63.3404 16.176 63.7458 16.176C64.1618 16.176 64.5511 16.0747 64.9138 15.872C65.2764 15.6587 65.5644 15.36 65.7778 14.976C65.9911 14.5813 66.0978 14.112 66.0978 13.568ZM80.69 12.272C81.3193 12.3893 81.8367 12.704 82.242 13.216C82.6473 13.728 82.85 14.3147 82.85 14.976C82.85 15.5733 82.7007 16.1013 82.402 16.56C82.114 17.008 81.6927 17.36 81.138 17.616C80.5833 17.872 79.9273 18 79.17 18H74.354V6.832H78.962C79.7193 6.832 80.37 6.95467 80.914 7.2C81.4687 7.44533 81.8847 7.78667 82.162 8.224C82.45 8.66133 82.594 9.15733 82.594 9.712C82.594 10.3627 82.418 10.9067 82.066 11.344C81.7247 11.7813 81.266 12.0907 80.69 12.272ZM76.594 11.44H78.642C79.1753 11.44 79.586 11.3227 79.874 11.088C80.162 10.8427 80.306 10.496 80.306 10.048C80.306 9.6 80.162 9.25333 79.874 9.008C79.586 8.76267 79.1753 8.64 78.642 8.64H76.594V11.44ZM78.85 16.176C79.394 16.176 79.8153 16.048 80.114 15.792C80.4233 15.536 80.578 15.1733 80.578 14.704C80.578 14.224 80.418 13.8507 80.098 13.584C79.778 13.3067 79.346 13.168 78.802 13.168H76.594V16.176H78.85ZM88.5713 18.144C87.7179 18.144 86.9499 17.9573 86.2673 17.584C85.5846 17.2 85.0459 16.6613 84.6513 15.968C84.2673 15.2747 84.0753 14.4747 84.0753 13.568C84.0753 12.6613 84.2726 11.8613 84.6673 11.168C85.0726 10.4747 85.6219 9.94133 86.3153 9.568C87.0086 9.184 87.7819 8.992 88.6353 8.992C89.4886 8.992 90.2619 9.184 90.9553 9.568C91.6486 9.94133 92.1926 10.4747 92.5873 11.168C92.9926 11.8613 93.1953 12.6613 93.1953 13.568C93.1953 14.4747 92.9873 15.2747 92.5712 15.968C92.1659 16.6613 91.6113 17.2 90.9073 17.584C90.2139 17.9573 89.4353 18.144 88.5713 18.144ZM88.5713 16.192C88.9766 16.192 89.3553 16.096 89.7073 15.904C90.0699 15.7013 90.3579 15.4027 90.5713 15.008C90.7846 14.6133 90.8913 14.1333 90.8913 13.568C90.8913 12.7253 90.6673 12.08 90.2193 11.632C89.7819 11.1733 89.2433 10.944 88.6033 10.944C87.9633 10.944 87.4246 11.1733 86.9873 11.632C86.5606 12.08 86.3473 12.7253 86.3473 13.568C86.3473 14.4107 86.5553 15.0613 86.9713 15.52C87.3979 15.968 87.9313 16.192 88.5713 16.192ZM98.7744 18.144C97.921 18.144 97.153 17.9573 96.4704 17.584C95.7877 17.2 95.249 16.6613 94.8544 15.968C94.4704 15.2747 94.2784 14.4747 94.2784 13.568C94.2784 12.6613 94.4757 11.8613 94.8704 11.168C95.2757 10.4747 95.825 9.94133 96.5184 9.568C97.2117 9.184 97.985 8.992 98.8384 8.992C99.6917 8.992 100.465 9.184 101.158 9.568C101.852 9.94133 102.396 10.4747 102.79 11.168C103.196 11.8613 103.398 12.6613 103.398 13.568C103.398 14.4747 103.19 15.2747 102.774 15.968C102.369 16.6613 101.814 17.2 101.11 17.584C100.417 17.9573 99.6384 18.144 98.7744 18.144ZM98.7744 16.192C99.1797 16.192 99.5584 16.096 99.9104 15.904C100.273 15.7013 100.561 15.4027 100.774 15.008C100.988 14.6133 101.094 14.1333 101.094 13.568C101.094 12.7253 100.87 12.08 100.422 11.632C99.985 11.1733 99.4464 10.944 98.8064 10.944C98.1664 10.944 97.6277 11.1733 97.1904 11.632C96.7637 12.08 96.5504 12.7253 96.5504 13.568C96.5504 14.4107 96.7584 15.0613 97.1744 15.52C97.601 15.968 98.1344 16.192 98.7744 16.192ZM110.29 18L107.282 14.224V18H105.042V6.16H107.282V12.896L110.258 9.136H113.17L109.266 13.584L113.202 18H110.29ZM117.777 18.144C117.052 18.144 116.401 18.016 115.825 17.76C115.249 17.4933 114.791 17.136 114.449 16.688C114.119 16.24 113.937 15.744 113.905 15.2H116.161C116.204 15.5413 116.369 15.824 116.657 16.048C116.956 16.272 117.324 16.384 117.761 16.384C118.188 16.384 118.519 16.2987 118.753 16.128C118.999 15.9573 119.121 15.7387 119.121 15.472C119.121 15.184 118.972 14.9707 118.673 14.832C118.385 14.6827 117.921 14.5227 117.281 14.352C116.62 14.192 116.076 14.0267 115.649 13.856C115.233 13.6853 114.871 13.424 114.561 13.072C114.263 12.72 114.113 12.2453 114.113 11.648C114.113 11.1573 114.252 10.7093 114.529 10.304C114.817 9.89867 115.223 9.57867 115.745 9.344C116.279 9.10933 116.903 8.992 117.617 8.992C118.673 8.992 119.516 9.25867 120.145 9.792C120.775 10.3147 121.121 11.024 121.185 11.92H119.041C119.009 11.568 118.86 11.2907 118.593 11.088C118.337 10.8747 117.991 10.768 117.553 10.768C117.148 10.768 116.833 10.8427 116.609 10.992C116.396 11.1413 116.289 11.3493 116.289 11.616C116.289 11.9147 116.439 12.144 116.737 12.304C117.036 12.4533 117.5 12.608 118.129 12.768C118.769 12.928 119.297 13.0933 119.713 13.264C120.129 13.4347 120.487 13.7013 120.785 14.064C121.095 14.416 121.255 14.8853 121.265 15.472C121.265 15.984 121.121 16.4427 120.833 16.848C120.556 17.2533 120.151 17.5733 119.617 17.808C119.095 18.032 118.481 18.144 117.777 18.144ZM125.712 10.976V15.264C125.712 15.5627 125.781 15.7813 125.92 15.92C126.069 16.048 126.315 16.112 126.656 16.112H127.696V18H126.288C124.4 18 123.456 17.0827 123.456 15.248V10.976H122.4V9.136H123.456V6.944H125.712V9.136H127.696V10.976H125.712ZM133.243 18.144C132.39 18.144 131.622 17.9573 130.939 17.584C130.256 17.2 129.718 16.6613 129.323 15.968C128.939 15.2747 128.747 14.4747 128.747 13.568C128.747 12.6613 128.944 11.8613 129.339 11.168C129.744 10.4747 130.294 9.94133 130.987 9.568C131.68 9.184 132.454 8.992 133.307 8.992C134.16 8.992 134.934 9.184 135.627 9.568C136.32 9.94133 136.864 10.4747 137.259 11.168C137.664 11.8613 137.867 12.6613 137.867 13.568C137.867 14.4747 137.659 15.2747 137.243 15.968C136.838 16.6613 136.283 17.2 135.579 17.584C134.886 17.9573 134.107 18.144 133.243 18.144ZM133.243 16.192C133.648 16.192 134.027 16.096 134.379 15.904C134.742 15.7013 135.03 15.4027 135.243 15.008C135.456 14.6133 135.563 14.1333 135.563 13.568C135.563 12.7253 135.339 12.08 134.891 11.632C134.454 11.1733 133.915 10.944 133.275 10.944C132.635 10.944 132.096 11.1733 131.659 11.632C131.232 12.08 131.019 12.7253 131.019 13.568C131.019 14.4107 131.227 15.0613 131.643 15.52C132.07 15.968 132.603 16.192 133.243 16.192ZM141.75 10.512C142.038 10.0427 142.412 9.67467 142.87 9.408C143.34 9.14133 143.873 9.008 144.47 9.008V11.36H143.878C143.174 11.36 142.641 11.5253 142.278 11.856C141.926 12.1867 141.75 12.7627 141.75 13.584V18H139.51V9.136H141.75V10.512ZM154.219 13.376C154.219 13.696 154.198 13.984 154.155 14.24H147.675C147.728 14.88 147.952 15.3813 148.347 15.744C148.742 16.1067 149.227 16.288 149.803 16.288C150.635 16.288 151.227 15.9307 151.579 15.216H153.995C153.739 16.0693 153.248 16.7733 152.523 17.328C151.798 17.872 150.907 18.144 149.851 18.144C148.998 18.144 148.23 17.9573 147.547 17.584C146.875 17.2 146.347 16.6613 145.963 15.968C145.59 15.2747 145.403 14.4747 145.403 13.568C145.403 12.6507 145.59 11.8453 145.963 11.152C146.336 10.4587 146.859 9.92533 147.531 9.552C148.203 9.17867 148.976 8.992 149.851 8.992C150.694 8.992 151.446 9.17333 152.107 9.536C152.779 9.89867 153.296 10.416 153.659 11.088C154.032 11.7493 154.219 12.512 154.219 13.376ZM151.899 12.736C151.888 12.16 151.68 11.7013 151.275 11.36C150.87 11.008 150.374 10.832 149.787 10.832C149.232 10.832 148.763 11.0027 148.379 11.344C148.006 11.6747 147.776 12.1387 147.691 12.736H151.899Z" fill="#4E5F6D"/>
<g opacity="0.6">
<g style="mix-blend-mode:multiply" opacity="0.5">
<rect x="0.119141" y="5.4126" width="14.8809" height="17.8947" rx="2" fill="url(#paint0_linear_349_18493)"/>
</g>
<g style="mix-blend-mode:multiply" opacity="0.5">
<path d="M0 6.47189C0 5.63561 0.520318 4.88762 1.30439 4.59676L8.30439 1.99998C9.6108 1.51535 11 2.48171 11 3.87512V17.5281C11 18.3644 10.4797 19.1124 9.69561 19.4032L2.69561 22C1.3892 22.4847 0 21.5183 0 20.1249V6.47189Z" fill="url(#paint1_linear_349_18493)"/>
</g>
</g>
<defs>
<linearGradient id="paint0_linear_349_18493" x1="14.5724" y1="30.3096" x2="-0.620777" y2="29.7407" gradientUnits="userSpaceOnUse">
<stop offset="0.0416667" stop-color="#ED35EC"/>
<stop offset="0.387036" stop-color="#ED35C5"/>
<stop offset="0.757473" stop-color="#7879F1"/>
<stop offset="1" stop-color="#5E60F0"/>
</linearGradient>
<linearGradient id="paint1_linear_349_18493" x1="10.6839" y1="31.6087" x2="-0.556999" y2="31.3556" gradientUnits="userSpaceOnUse">
<stop offset="0.0416667" stop-color="#ED35EC"/>
<stop offset="0.387036" stop-color="#ED35C5"/>
<stop offset="0.757473" stop-color="#7879F1"/>
<stop offset="1" stop-color="#5E60F0"/>
</linearGradient>
</defs>
</svg>
