<svg width="22" height="22" viewBox="0 0 22 22" fill="none" xmlns="http://www.w3.org/2000/svg">
<path d="M4.00081 5.41384L0.757812 2.17184L2.17281 0.756836L5.41481 3.99984H20.6568C20.8127 3.99983 20.9664 4.03625 21.1057 4.1062C21.245 4.17616 21.366 4.2777 21.459 4.40273C21.5521 4.52776 21.6147 4.67282 21.6417 4.82632C21.6688 4.97983 21.6595 5.13753 21.6148 5.28684L19.2148 13.2868C19.1531 13.4929 19.0265 13.6736 18.8539 13.802C18.6813 13.9305 18.4719 13.9999 18.2568 13.9998H6.00081V15.9998H17.0008V17.9998H5.00081C4.7356 17.9998 4.48124 17.8945 4.29371 17.7069C4.10617 17.5194 4.00081 17.2651 4.00081 16.9998V5.41384ZM6.00081 5.99984V11.9998H17.5128L19.3128 5.99984H6.00081ZM5.50081 21.9998C5.10299 21.9998 4.72146 21.8418 4.44015 21.5605C4.15885 21.2792 4.00081 20.8977 4.00081 20.4998C4.00081 20.102 4.15885 19.7205 4.44015 19.4392C4.72146 19.1579 5.10299 18.9998 5.50081 18.9998C5.89864 18.9998 6.28017 19.1579 6.56147 19.4392C6.84278 19.7205 7.00081 20.102 7.00081 20.4998C7.00081 20.8977 6.84278 21.2792 6.56147 21.5605C6.28017 21.8418 5.89864 21.9998 5.50081 21.9998ZM17.5008 21.9998C17.103 21.9998 16.7215 21.8418 16.4402 21.5605C16.1588 21.2792 16.0008 20.8977 16.0008 20.4998C16.0008 20.102 16.1588 19.7205 16.4402 19.4392C16.7215 19.1579 17.103 18.9998 17.5008 18.9998C17.8986 18.9998 18.2802 19.1579 18.5615 19.4392C18.8428 19.7205 19.0008 20.102 19.0008 20.4998C19.0008 20.8977 18.8428 21.2792 18.5615 21.5605C18.2802 21.8418 17.8986 21.9998 17.5008 21.9998Z" fill="#97A5B0"/>
</svg>
